<svg width="607" height="154" viewBox="0 0 607 154" fill="none" xmlns="http://www.w3.org/2000/svg">
<mask id="path-1-outside-1_68_64" maskUnits="userSpaceOnUse" x="184" y="53" width="422" height="51" fill="black">
<rect fill="white" x="184" y="53" width="422" height="51"/>
<path d="M186.584 102V55.984H223.704C225.325 55.984 226.819 56.3893 228.184 57.2C229.549 58.0107 230.637 59.0987 231.448 60.464C232.259 61.7867 232.664 63.2587 232.664 64.88V77.296C232.664 78.9173 232.259 80.4107 231.448 81.776C230.637 83.1413 229.549 84.2293 228.184 85.04C226.819 85.808 225.325 86.192 223.704 86.192L195.032 86.256V102H186.584ZM195.8 77.68H223.32C223.533 77.68 223.725 77.616 223.896 77.488C224.067 77.36 224.152 77.1893 224.152 76.976V65.2C224.152 64.9867 224.067 64.816 223.896 64.688C223.725 64.5173 223.533 64.432 223.32 64.432H195.8C195.587 64.432 195.395 64.5173 195.224 64.688C195.096 64.816 195.032 64.9867 195.032 65.2V76.976C195.032 77.1893 195.096 77.36 195.224 77.488C195.395 77.616 195.587 77.68 195.8 77.68ZM245.977 102C244.356 102 242.862 101.595 241.497 100.784C240.174 99.9733 239.108 98.9067 238.297 97.584C237.486 96.2187 237.081 94.7253 237.081 93.104V64.816C237.081 63.1947 237.486 61.7227 238.297 60.4C239.108 59.0347 240.174 57.9467 241.497 57.136C242.862 56.3253 244.356 55.92 245.977 55.92H274.265C275.886 55.92 277.358 56.3253 278.681 57.136C280.046 57.9467 281.134 59.0347 281.945 60.4C282.756 61.7227 283.161 63.1947 283.161 64.816V93.104C283.161 94.7253 282.756 96.2187 281.945 97.584C281.134 98.9067 280.046 99.9733 278.681 100.784C277.358 101.595 275.886 102 274.265 102H245.977ZM246.297 93.488H273.817C274.03 93.488 274.222 93.424 274.393 93.296C274.564 93.1253 274.649 92.9333 274.649 92.72V65.2C274.649 64.9867 274.564 64.816 274.393 64.688C274.222 64.5173 274.03 64.432 273.817 64.432H246.297C246.084 64.432 245.892 64.5173 245.721 64.688C245.593 64.816 245.529 64.9867 245.529 65.2V92.72C245.529 92.9333 245.593 93.1253 245.721 93.296C245.892 93.424 246.084 93.488 246.297 93.488ZM290.273 102V55.92H298.785V74.672H309.601L325.345 55.92H334.561V58.352L317.281 78.96L334.625 99.568V102H325.345L309.601 83.248H298.785V102H290.273ZM341.337 102V55.92H383.769V64.432H349.849V74.672H377.113V83.248H349.849V93.488H383.769V102H341.337ZM390.209 102V55.984H427.329C428.95 55.984 430.444 56.3893 431.809 57.2C433.174 58.0107 434.262 59.0987 435.073 60.464C435.884 61.7867 436.289 63.2587 436.289 64.88V77.296C436.289 78.9173 435.884 80.4107 435.073 81.776C434.262 83.1413 433.174 84.2293 431.809 85.04C430.444 85.808 428.95 86.192 427.329 86.192L398.657 86.256V102H390.209ZM399.425 77.68H426.945C427.158 77.68 427.35 77.616 427.521 77.488C427.692 77.36 427.777 77.1893 427.777 76.976V65.2C427.777 64.9867 427.692 64.816 427.521 64.688C427.35 64.5173 427.158 64.432 426.945 64.432H399.425C399.212 64.432 399.02 64.5173 398.849 64.688C398.721 64.816 398.657 64.9867 398.657 65.2V76.976C398.657 77.1893 398.721 77.36 398.849 77.488C399.02 77.616 399.212 77.68 399.425 77.68ZM440.962 102V55.92H483.394V64.432H449.474V74.672H476.738V83.248H449.474V93.488H483.394V102H440.962ZM489.962 102V55.92H527.082C528.703 55.92 530.197 56.3253 531.562 57.136C532.927 57.9467 534.015 59.0347 534.826 60.4C535.637 61.7227 536.042 63.1947 536.042 64.816V93.104C536.042 94.7253 535.637 96.2187 534.826 97.584C534.015 98.9067 532.927 99.9733 531.562 100.784C530.197 101.595 528.703 102 527.082 102H489.962ZM499.114 93.488H526.698C526.911 93.488 527.103 93.424 527.274 93.296C527.445 93.1253 527.53 92.9333 527.53 92.72V65.2C527.53 64.9867 527.445 64.816 527.274 64.688C527.103 64.5173 526.911 64.432 526.698 64.432H499.114C498.901 64.432 498.709 64.5173 498.538 64.688C498.41 64.816 498.346 64.9867 498.346 65.2V92.72C498.346 92.9333 498.41 93.1253 498.538 93.296C498.709 93.424 498.901 93.488 499.114 93.488ZM542.313 102V55.92H550.697V102H542.313ZM557.025 102V64.816C557.025 63.1947 557.43 61.7227 558.241 60.4C559.051 59.0347 560.118 57.9467 561.441 57.136C562.806 56.3253 564.299 55.92 565.921 55.92H594.145C595.766 55.92 597.259 56.3253 598.625 57.136C599.99 57.9467 601.078 59.0347 601.889 60.4C602.699 61.7227 603.105 63.1947 603.105 64.816V102H594.593V86.512H565.473V102H557.025ZM565.473 78.064H594.593V65.2C594.593 64.9867 594.507 64.816 594.337 64.688C594.166 64.5173 593.974 64.432 593.761 64.432H566.241C566.027 64.432 565.835 64.5173 565.665 64.688C565.537 64.816 565.473 64.9867 565.473 65.2V78.064Z"/>
</mask>
<path d="M186.584 102V55.984H223.704C225.325 55.984 226.819 56.3893 228.184 57.2C229.549 58.0107 230.637 59.0987 231.448 60.464C232.259 61.7867 232.664 63.2587 232.664 64.88V77.296C232.664 78.9173 232.259 80.4107 231.448 81.776C230.637 83.1413 229.549 84.2293 228.184 85.04C226.819 85.808 225.325 86.192 223.704 86.192L195.032 86.256V102H186.584ZM195.8 77.68H223.32C223.533 77.68 223.725 77.616 223.896 77.488C224.067 77.36 224.152 77.1893 224.152 76.976V65.2C224.152 64.9867 224.067 64.816 223.896 64.688C223.725 64.5173 223.533 64.432 223.32 64.432H195.8C195.587 64.432 195.395 64.5173 195.224 64.688C195.096 64.816 195.032 64.9867 195.032 65.2V76.976C195.032 77.1893 195.096 77.36 195.224 77.488C195.395 77.616 195.587 77.68 195.8 77.68ZM245.977 102C244.356 102 242.862 101.595 241.497 100.784C240.174 99.9733 239.108 98.9067 238.297 97.584C237.486 96.2187 237.081 94.7253 237.081 93.104V64.816C237.081 63.1947 237.486 61.7227 238.297 60.4C239.108 59.0347 240.174 57.9467 241.497 57.136C242.862 56.3253 244.356 55.92 245.977 55.92H274.265C275.886 55.92 277.358 56.3253 278.681 57.136C280.046 57.9467 281.134 59.0347 281.945 60.4C282.756 61.7227 283.161 63.1947 283.161 64.816V93.104C283.161 94.7253 282.756 96.2187 281.945 97.584C281.134 98.9067 280.046 99.9733 278.681 100.784C277.358 101.595 275.886 102 274.265 102H245.977ZM246.297 93.488H273.817C274.03 93.488 274.222 93.424 274.393 93.296C274.564 93.1253 274.649 92.9333 274.649 92.72V65.2C274.649 64.9867 274.564 64.816 274.393 64.688C274.222 64.5173 274.03 64.432 273.817 64.432H246.297C246.084 64.432 245.892 64.5173 245.721 64.688C245.593 64.816 245.529 64.9867 245.529 65.2V92.72C245.529 92.9333 245.593 93.1253 245.721 93.296C245.892 93.424 246.084 93.488 246.297 93.488ZM290.273 102V55.92H298.785V74.672H309.601L325.345 55.92H334.561V58.352L317.281 78.96L334.625 99.568V102H325.345L309.601 83.248H298.785V102H290.273ZM341.337 102V55.92H383.769V64.432H349.849V74.672H377.113V83.248H349.849V93.488H383.769V102H341.337ZM390.209 102V55.984H427.329C428.95 55.984 430.444 56.3893 431.809 57.2C433.174 58.0107 434.262 59.0987 435.073 60.464C435.884 61.7867 436.289 63.2587 436.289 64.88V77.296C436.289 78.9173 435.884 80.4107 435.073 81.776C434.262 83.1413 433.174 84.2293 431.809 85.04C430.444 85.808 428.95 86.192 427.329 86.192L398.657 86.256V102H390.209ZM399.425 77.68H426.945C427.158 77.68 427.35 77.616 427.521 77.488C427.692 77.36 427.777 77.1893 427.777 76.976V65.2C427.777 64.9867 427.692 64.816 427.521 64.688C427.35 64.5173 427.158 64.432 426.945 64.432H399.425C399.212 64.432 399.02 64.5173 398.849 64.688C398.721 64.816 398.657 64.9867 398.657 65.2V76.976C398.657 77.1893 398.721 77.36 398.849 77.488C399.02 77.616 399.212 77.68 399.425 77.68ZM440.962 102V55.92H483.394V64.432H449.474V74.672H476.738V83.248H449.474V93.488H483.394V102H440.962ZM489.962 102V55.92H527.082C528.703 55.92 530.197 56.3253 531.562 57.136C532.927 57.9467 534.015 59.0347 534.826 60.4C535.637 61.7227 536.042 63.1947 536.042 64.816V93.104C536.042 94.7253 535.637 96.2187 534.826 97.584C534.015 98.9067 532.927 99.9733 531.562 100.784C530.197 101.595 528.703 102 527.082 102H489.962ZM499.114 93.488H526.698C526.911 93.488 527.103 93.424 527.274 93.296C527.445 93.1253 527.53 92.9333 527.53 92.72V65.2C527.53 64.9867 527.445 64.816 527.274 64.688C527.103 64.5173 526.911 64.432 526.698 64.432H499.114C498.901 64.432 498.709 64.5173 498.538 64.688C498.41 64.816 498.346 64.9867 498.346 65.2V92.72C498.346 92.9333 498.41 93.1253 498.538 93.296C498.709 93.424 498.901 93.488 499.114 93.488ZM542.313 102V55.92H550.697V102H542.313ZM557.025 102V64.816C557.025 63.1947 557.43 61.7227 558.241 60.4C559.051 59.0347 560.118 57.9467 561.441 57.136C562.806 56.3253 564.299 55.92 565.921 55.92H594.145C595.766 55.92 597.259 56.3253 598.625 57.136C599.99 57.9467 601.078 59.0347 601.889 60.4C602.699 61.7227 603.105 63.1947 603.105 64.816V102H594.593V86.512H565.473V102H557.025ZM565.473 78.064H594.593V65.2C594.593 64.9867 594.507 64.816 594.337 64.688C594.166 64.5173 593.974 64.432 593.761 64.432H566.241C566.027 64.432 565.835 64.5173 565.665 64.688C565.537 64.816 565.473 64.9867 565.473 65.2V78.064Z" fill="white"/>
<path d="M186.584 102H184.584V104H186.584V102ZM186.584 55.984V53.984H184.584V55.984H186.584ZM231.448 60.464L229.728 61.4851L229.735 61.4971L229.743 61.5091L231.448 60.464ZM228.184 85.04L229.165 86.7831L229.185 86.7717L229.205 86.7597L228.184 85.04ZM223.704 86.192L223.704 84.192L223.7 84.192L223.704 86.192ZM195.032 86.256L195.028 84.256L193.032 84.2605V86.256H195.032ZM195.032 102V104H197.032V102H195.032ZM223.896 77.488L225.096 79.088L225.096 79.088L223.896 77.488ZM223.896 64.688L222.482 66.1022L222.582 66.2027L222.696 66.288L223.896 64.688ZM195.224 64.688L196.638 66.1022L196.638 66.1022L195.224 64.688ZM195.224 77.488L193.81 78.9022L193.91 79.0027L194.024 79.088L195.224 77.488ZM188.584 102V55.984H184.584V102H188.584ZM186.584 57.984H223.704V53.984H186.584V57.984ZM223.704 57.984C224.974 57.984 226.113 58.2965 227.163 58.9197L229.205 55.4803C227.524 54.4821 225.677 53.984 223.704 53.984V57.984ZM227.163 58.9197C228.241 59.5596 229.088 60.4074 229.728 61.4851L233.168 59.4429C232.186 57.7899 230.858 56.4617 229.205 55.4803L227.163 58.9197ZM229.743 61.5091C230.352 62.5027 230.664 63.6101 230.664 64.88H234.664C234.664 62.9072 234.166 61.0706 233.153 59.4189L229.743 61.5091ZM230.664 64.88V77.296H234.664V64.88H230.664ZM230.664 77.296C230.664 78.5659 230.351 79.7054 229.728 80.7549L233.168 82.7971C234.166 81.116 234.664 79.2687 234.664 77.296H230.664ZM229.728 80.7549C229.088 81.8326 228.241 82.6804 227.163 83.3203L229.205 86.7597C230.858 85.7783 232.186 84.45 233.168 82.7971L229.728 80.7549ZM227.203 83.2968C226.148 83.8904 224.994 84.192 223.704 84.192V88.192C225.656 88.192 227.489 87.7256 229.165 86.7831L227.203 83.2968ZM223.7 84.192L195.028 84.256L195.036 88.256L223.708 88.192L223.7 84.192ZM193.032 86.256V102H197.032V86.256H193.032ZM195.032 100H186.584V104H195.032V100ZM195.8 79.68H223.32V75.68H195.8V79.68ZM223.32 79.68C223.966 79.68 224.579 79.4756 225.096 79.088L222.696 75.888C222.773 75.83 222.873 75.7742 222.992 75.7346C223.11 75.6951 223.223 75.68 223.32 75.68V79.68ZM225.096 79.088C225.77 78.5823 226.152 77.8188 226.152 76.976H222.152C222.152 76.8092 222.187 76.5933 222.299 76.3696C222.411 76.1459 222.563 75.9881 222.696 75.888L225.096 79.088ZM226.152 76.976V65.2H222.152V76.976H226.152ZM226.152 65.2C226.152 64.3572 225.77 63.5937 225.096 63.088L222.696 66.288C222.563 66.1879 222.411 66.0301 222.299 65.8064C222.187 65.5827 222.152 65.3668 222.152 65.2H226.152ZM225.31 63.2738C224.818 62.7817 224.135 62.432 223.32 62.432V66.432C223.151 66.432 222.975 66.3964 222.812 66.3236C222.653 66.2529 222.545 66.165 222.482 66.1022L225.31 63.2738ZM223.32 62.432H195.8V66.432H223.32V62.432ZM195.8 62.432C194.985 62.432 194.302 62.7817 193.81 63.2738L196.638 66.1022C196.575 66.165 196.467 66.2529 196.308 66.3236C196.145 66.3964 195.969 66.432 195.8 66.432V62.432ZM193.81 63.2738C193.24 63.8432 193.032 64.5582 193.032 65.2H197.032C197.032 65.2931 197.018 65.4403 196.953 65.6142C196.885 65.7943 196.778 65.9629 196.638 66.1022L193.81 63.2738ZM193.032 65.2V76.976H197.032V65.2H193.032ZM193.032 76.976C193.032 77.6178 193.24 78.3327 193.81 78.9022L196.638 76.0738C196.778 76.2131 196.885 76.3817 196.953 76.5618C197.018 76.7357 197.032 76.8829 197.032 76.976H193.032ZM194.024 79.088C194.541 79.4756 195.154 79.68 195.8 79.68V75.68C195.897 75.68 196.01 75.6951 196.128 75.7346C196.247 75.7742 196.347 75.83 196.424 75.888L194.024 79.088ZM241.497 100.784L240.452 102.489L240.464 102.497L240.476 102.504L241.497 100.784ZM238.297 97.584L236.577 98.6051L236.584 98.6172L236.592 98.6291L238.297 97.584ZM238.297 60.4L240.002 61.4451L240.01 61.4331L240.017 61.4211L238.297 60.4ZM241.497 57.136L240.476 55.4163L240.464 55.4235L240.452 55.4308L241.497 57.136ZM278.681 57.136L277.636 58.8412L277.648 58.8485L277.66 58.8557L278.681 57.136ZM281.945 60.4L280.225 61.4211L280.232 61.4331L280.24 61.4451L281.945 60.4ZM281.945 97.584L283.65 98.6291L283.658 98.6172L283.665 98.6051L281.945 97.584ZM278.681 100.784L277.66 99.0643L277.648 99.0715L277.636 99.0788L278.681 100.784ZM274.393 93.296L275.593 94.896L275.707 94.8107L275.807 94.7102L274.393 93.296ZM274.393 64.688L272.979 66.1022L273.079 66.2027L273.193 66.288L274.393 64.688ZM245.721 64.688L247.135 66.1022L247.135 66.1022L245.721 64.688ZM245.721 93.296L244.121 94.496L244.292 94.7246L244.521 94.896L245.721 93.296ZM245.977 100C244.707 100 243.568 99.6875 242.518 99.0643L240.476 102.504C242.157 103.502 244.004 104 245.977 104V100ZM242.542 99.0788C241.488 98.433 240.648 97.5925 240.002 96.5389L236.592 98.6291C237.567 100.221 238.86 101.514 240.452 102.489L242.542 99.0788ZM240.017 96.5629C239.394 95.5134 239.081 94.3739 239.081 93.104H235.081C235.081 95.0767 235.579 96.924 236.577 98.6051L240.017 96.5629ZM239.081 93.104V64.816H235.081V93.104H239.081ZM239.081 64.816C239.081 63.5461 239.393 62.4387 240.002 61.4451L236.592 59.3549C235.579 61.0066 235.081 62.8432 235.081 64.816H239.081ZM240.017 61.4211C240.666 60.3284 241.503 59.4779 242.542 58.8412L240.452 55.4308C238.845 56.4154 237.55 57.741 236.577 59.3789L240.017 61.4211ZM242.518 58.8557C243.568 58.2325 244.707 57.92 245.977 57.92V53.92C244.004 53.92 242.157 54.4181 240.476 55.4163L242.518 58.8557ZM245.977 57.92H274.265V53.92H245.977V57.92ZM274.265 57.92C275.535 57.92 276.642 58.2322 277.636 58.8412L279.726 55.4308C278.074 54.4184 276.238 53.92 274.265 53.92V57.92ZM277.66 58.8557C278.738 59.4956 279.585 60.3434 280.225 61.4211L283.665 59.3789C282.683 57.7259 281.355 56.3977 279.702 55.4163L277.66 58.8557ZM280.24 61.4451C280.849 62.4387 281.161 63.5461 281.161 64.816H285.161C285.161 62.8432 284.663 61.0066 283.65 59.3549L280.24 61.4451ZM281.161 64.816V93.104H285.161V64.816H281.161ZM281.161 93.104C281.161 94.3739 280.848 95.5134 280.225 96.5629L283.665 98.6051C284.663 96.924 285.161 95.0767 285.161 93.104H281.161ZM280.24 96.5389C279.603 97.5777 278.753 98.4155 277.66 99.0643L279.702 102.504C281.34 101.531 282.666 100.236 283.65 98.6291L280.24 96.5389ZM277.636 99.0788C276.642 99.6878 275.535 100 274.265 100V104C276.238 104 278.074 103.502 279.726 102.489L277.636 99.0788ZM274.265 100H245.977V104H274.265V100ZM246.297 95.488H273.817V91.488H246.297V95.488ZM273.817 95.488C274.463 95.488 275.076 95.2836 275.593 94.896L273.193 91.696C273.27 91.638 273.37 91.5822 273.489 91.5426C273.607 91.5031 273.72 91.488 273.817 91.488V95.488ZM275.807 94.7102C276.299 94.2182 276.649 93.5352 276.649 92.72H272.649C272.649 92.5513 272.685 92.3755 272.757 92.2117C272.828 92.0527 272.916 91.9445 272.979 91.8818L275.807 94.7102ZM276.649 92.72V65.2H272.649V92.72H276.649ZM276.649 65.2C276.649 64.3571 276.267 63.5937 275.593 63.088L273.193 66.288C273.06 66.1879 272.908 66.0302 272.796 65.8064C272.684 65.5827 272.649 65.3668 272.649 65.2H276.649ZM275.807 63.2738C275.315 62.7817 274.632 62.432 273.817 62.432V66.432C273.648 66.432 273.472 66.3964 273.309 66.3236C273.15 66.2529 273.042 66.165 272.979 66.1022L275.807 63.2738ZM273.817 62.432H246.297V66.432H273.817V62.432ZM246.297 62.432C245.482 62.432 244.799 62.7817 244.307 63.2738L247.135 66.1022C247.072 66.165 246.964 66.2529 246.805 66.3236C246.642 66.3964 246.466 66.432 246.297 66.432V62.432ZM244.307 63.2738C243.737 63.8432 243.529 64.5582 243.529 65.2H247.529C247.529 65.2931 247.515 65.4403 247.45 65.6142C247.382 65.7943 247.275 65.9629 247.135 66.1022L244.307 63.2738ZM243.529 65.2V92.72H247.529V65.2H243.529ZM243.529 92.72C243.529 93.3661 243.733 93.9791 244.121 94.496L247.321 92.096C247.379 92.1733 247.435 92.2728 247.474 92.3915C247.514 92.5103 247.529 92.6234 247.529 92.72H243.529ZM244.521 94.896C245.038 95.2836 245.651 95.488 246.297 95.488V91.488C246.394 91.488 246.507 91.5031 246.625 91.5426C246.744 91.5822 246.844 91.638 246.921 91.696L244.521 94.896ZM290.273 102H288.273V104H290.273V102ZM290.273 55.92V53.92H288.273V55.92H290.273ZM298.785 55.92H300.785V53.92H298.785V55.92ZM298.785 74.672H296.785V76.672H298.785V74.672ZM309.601 74.672V76.672H310.533L311.133 75.958L309.601 74.672ZM325.345 55.92V53.92H324.413L323.813 54.634L325.345 55.92ZM334.561 55.92H336.561V53.92H334.561V55.92ZM334.561 58.352L336.094 59.637L336.561 59.0795V58.352H334.561ZM317.281 78.96L315.748 77.675L314.669 78.9624L315.751 80.2478L317.281 78.96ZM334.625 99.568H336.625V98.8384L336.155 98.2802L334.625 99.568ZM334.625 102V104H336.625V102H334.625ZM325.345 102L323.813 103.286L324.413 104H325.345V102ZM309.601 83.248L311.133 81.962L310.533 81.248H309.601V83.248ZM298.785 83.248V81.248H296.785V83.248H298.785ZM298.785 102V104H300.785V102H298.785ZM292.273 102V55.92H288.273V102H292.273ZM290.273 57.92H298.785V53.92H290.273V57.92ZM296.785 55.92V74.672H300.785V55.92H296.785ZM298.785 76.672H309.601V72.672H298.785V76.672ZM311.133 75.958L326.877 57.206L323.813 54.634L308.069 73.386L311.133 75.958ZM325.345 57.92H334.561V53.92H325.345V57.92ZM332.561 55.92V58.352H336.561V55.92H332.561ZM333.028 57.067L315.748 77.675L318.814 80.245L336.094 59.637L333.028 57.067ZM315.751 80.2478L333.095 100.856L336.155 98.2802L318.811 77.6722L315.751 80.2478ZM332.625 99.568V102H336.625V99.568H332.625ZM334.625 100H325.345V104H334.625V100ZM326.877 100.714L311.133 81.962L308.069 84.534L323.813 103.286L326.877 100.714ZM309.601 81.248H298.785V85.248H309.601V81.248ZM296.785 83.248V102H300.785V83.248H296.785ZM298.785 100H290.273V104H298.785V100ZM341.337 102H339.337V104H341.337V102ZM341.337 55.92V53.92H339.337V55.92H341.337ZM383.769 55.92H385.769V53.92H383.769V55.92ZM383.769 64.432V66.432H385.769V64.432H383.769ZM349.849 64.432V62.432H347.849V64.432H349.849ZM349.849 74.672H347.849V76.672H349.849V74.672ZM377.113 74.672H379.113V72.672H377.113V74.672ZM377.113 83.248V85.248H379.113V83.248H377.113ZM349.849 83.248V81.248H347.849V83.248H349.849ZM349.849 93.488H347.849V95.488H349.849V93.488ZM383.769 93.488H385.769V91.488H383.769V93.488ZM383.769 102V104H385.769V102H383.769ZM343.337 102V55.92H339.337V102H343.337ZM341.337 57.92H383.769V53.92H341.337V57.92ZM381.769 55.92V64.432H385.769V55.92H381.769ZM383.769 62.432H349.849V66.432H383.769V62.432ZM347.849 64.432V74.672H351.849V64.432H347.849ZM349.849 76.672H377.113V72.672H349.849V76.672ZM375.113 74.672V83.248H379.113V74.672H375.113ZM377.113 81.248H349.849V85.248H377.113V81.248ZM347.849 83.248V93.488H351.849V83.248H347.849ZM349.849 95.488H383.769V91.488H349.849V95.488ZM381.769 93.488V102H385.769V93.488H381.769ZM383.769 100H341.337V104H383.769V100ZM390.209 102H388.209V104H390.209V102ZM390.209 55.984V53.984H388.209V55.984H390.209ZM435.073 60.464L433.353 61.4851L433.36 61.4971L433.368 61.5091L435.073 60.464ZM431.809 85.04L432.79 86.7831L432.81 86.7717L432.83 86.7597L431.809 85.04ZM427.329 86.192L427.329 84.192L427.325 84.192L427.329 86.192ZM398.657 86.256L398.653 84.256L396.657 84.2605V86.256H398.657ZM398.657 102V104H400.657V102H398.657ZM427.521 77.488L428.721 79.088L428.721 79.088L427.521 77.488ZM427.521 64.688L426.107 66.1022L426.207 66.2027L426.321 66.288L427.521 64.688ZM398.849 64.688L400.263 66.1022L400.263 66.1022L398.849 64.688ZM398.849 77.488L397.435 78.9022L397.535 79.0027L397.649 79.088L398.849 77.488ZM392.209 102V55.984H388.209V102H392.209ZM390.209 57.984H427.329V53.984H390.209V57.984ZM427.329 57.984C428.599 57.984 429.738 58.2965 430.788 58.9197L432.83 55.4803C431.149 54.4821 429.302 53.984 427.329 53.984V57.984ZM430.788 58.9197C431.866 59.5596 432.713 60.4074 433.353 61.4851L436.793 59.4429C435.811 57.7899 434.483 56.4617 432.83 55.4803L430.788 58.9197ZM433.368 61.5091C433.977 62.5027 434.289 63.6101 434.289 64.88H438.289C438.289 62.9072 437.791 61.0706 436.778 59.4189L433.368 61.5091ZM434.289 64.88V77.296H438.289V64.88H434.289ZM434.289 77.296C434.289 78.5659 433.976 79.7054 433.353 80.7549L436.793 82.7971C437.791 81.116 438.289 79.2687 438.289 77.296H434.289ZM433.353 80.7549C432.713 81.8326 431.866 82.6804 430.788 83.3203L432.83 86.7597C434.483 85.7783 435.811 84.45 436.793 82.7971L433.353 80.7549ZM430.828 83.2968C429.773 83.8904 428.619 84.192 427.329 84.192V88.192C429.281 88.192 431.114 87.7256 432.79 86.7831L430.828 83.2968ZM427.325 84.192L398.653 84.256L398.661 88.256L427.333 88.192L427.325 84.192ZM396.657 86.256V102H400.657V86.256H396.657ZM398.657 100H390.209V104H398.657V100ZM399.425 79.68H426.945V75.68H399.425V79.68ZM426.945 79.68C427.591 79.68 428.204 79.4756 428.721 79.088L426.321 75.888C426.398 75.83 426.498 75.7742 426.617 75.7346C426.735 75.6951 426.848 75.68 426.945 75.68V79.68ZM428.721 79.088C429.395 78.5823 429.777 77.8188 429.777 76.976H425.777C425.777 76.8092 425.812 76.5933 425.924 76.3696C426.036 76.1459 426.188 75.9881 426.321 75.888L428.721 79.088ZM429.777 76.976V65.2H425.777V76.976H429.777ZM429.777 65.2C429.777 64.3572 429.395 63.5937 428.721 63.088L426.321 66.288C426.188 66.1879 426.036 66.0301 425.924 65.8064C425.812 65.5827 425.777 65.3668 425.777 65.2H429.777ZM428.935 63.2738C428.443 62.7817 427.76 62.432 426.945 62.432V66.432C426.776 66.432 426.6 66.3964 426.437 66.3236C426.278 66.2529 426.17 66.165 426.107 66.1022L428.935 63.2738ZM426.945 62.432H399.425V66.432H426.945V62.432ZM399.425 62.432C398.61 62.432 397.927 62.7817 397.435 63.2738L400.263 66.1022C400.2 66.165 400.092 66.2529 399.933 66.3236C399.77 66.3964 399.594 66.432 399.425 66.432V62.432ZM397.435 63.2738C396.865 63.8432 396.657 64.5582 396.657 65.2H400.657C400.657 65.2931 400.643 65.4403 400.578 65.6142C400.51 65.7943 400.403 65.9629 400.263 66.1022L397.435 63.2738ZM396.657 65.2V76.976H400.657V65.2H396.657ZM396.657 76.976C396.657 77.6178 396.865 78.3327 397.435 78.9022L400.263 76.0738C400.403 76.2131 400.51 76.3817 400.578 76.5618C400.643 76.7357 400.657 76.8829 400.657 76.976H396.657ZM397.649 79.088C398.166 79.4756 398.779 79.68 399.425 79.68V75.68C399.522 75.68 399.635 75.6951 399.753 75.7346C399.872 75.7742 399.972 75.83 400.049 75.888L397.649 79.088ZM440.962 102H438.962V104H440.962V102ZM440.962 55.92V53.92H438.962V55.92H440.962ZM483.394 55.92H485.394V53.92H483.394V55.92ZM483.394 64.432V66.432H485.394V64.432H483.394ZM449.474 64.432V62.432H447.474V64.432H449.474ZM449.474 74.672H447.474V76.672H449.474V74.672ZM476.738 74.672H478.738V72.672H476.738V74.672ZM476.738 83.248V85.248H478.738V83.248H476.738ZM449.474 83.248V81.248H447.474V83.248H449.474ZM449.474 93.488H447.474V95.488H449.474V93.488ZM483.394 93.488H485.394V91.488H483.394V93.488ZM483.394 102V104H485.394V102H483.394ZM442.962 102V55.92H438.962V102H442.962ZM440.962 57.92H483.394V53.92H440.962V57.92ZM481.394 55.92V64.432H485.394V55.92H481.394ZM483.394 62.432H449.474V66.432H483.394V62.432ZM447.474 64.432V74.672H451.474V64.432H447.474ZM449.474 76.672H476.738V72.672H449.474V76.672ZM474.738 74.672V83.248H478.738V74.672H474.738ZM476.738 81.248H449.474V85.248H476.738V81.248ZM447.474 83.248V93.488H451.474V83.248H447.474ZM449.474 95.488H483.394V91.488H449.474V95.488ZM481.394 93.488V102H485.394V93.488H481.394ZM483.394 100H440.962V104H483.394V100ZM489.962 102H487.962V104H489.962V102ZM489.962 55.92V53.92H487.962V55.92H489.962ZM531.562 57.136L530.541 58.8557L530.541 58.8557L531.562 57.136ZM534.826 60.4L533.106 61.4211L533.113 61.4332L533.121 61.4451L534.826 60.4ZM534.826 97.584L536.531 98.6291L536.539 98.6172L536.546 98.6051L534.826 97.584ZM531.562 100.784L530.541 99.0643L530.541 99.0643L531.562 100.784ZM527.274 93.296L528.474 94.896L528.588 94.8107L528.688 94.7102L527.274 93.296ZM527.274 64.688L525.86 66.1022L525.96 66.2027L526.074 66.288L527.274 64.688ZM498.538 64.688L499.952 66.1022L499.952 66.1022L498.538 64.688ZM498.538 93.296L496.938 94.496L497.109 94.7246L497.338 94.896L498.538 93.296ZM491.962 102V55.92H487.962V102H491.962ZM489.962 57.92H527.082V53.92H489.962V57.92ZM527.082 57.92C528.352 57.92 529.491 58.2325 530.541 58.8557L532.583 55.4163C530.902 54.4181 529.055 53.92 527.082 53.92V57.92ZM530.541 58.8557C531.619 59.4956 532.466 60.3434 533.106 61.4211L536.546 59.3789C535.564 57.7259 534.236 56.3977 532.583 55.4163L530.541 58.8557ZM533.121 61.4451C533.73 62.4387 534.042 63.5461 534.042 64.816H538.042C538.042 62.8432 537.544 61.0066 536.531 59.3549L533.121 61.4451ZM534.042 64.816V93.104H538.042V64.816H534.042ZM534.042 93.104C534.042 94.3739 533.729 95.5134 533.106 96.5629L536.546 98.6051C537.544 96.924 538.042 95.0767 538.042 93.104H534.042ZM533.121 96.5389C532.484 97.5777 531.634 98.4155 530.541 99.0643L532.583 102.504C534.221 101.531 535.547 100.236 536.531 98.6291L533.121 96.5389ZM530.541 99.0643C529.491 99.6875 528.352 100 527.082 100V104C529.055 104 530.902 103.502 532.583 102.504L530.541 99.0643ZM527.082 100H489.962V104H527.082V100ZM499.114 95.488H526.698V91.488H499.114V95.488ZM526.698 95.488C527.344 95.488 527.957 95.2836 528.474 94.896L526.074 91.696C526.151 91.638 526.251 91.5822 526.37 91.5426C526.488 91.5031 526.601 91.488 526.698 91.488V95.488ZM528.688 94.7102C529.18 94.2182 529.53 93.5352 529.53 92.72H525.53C525.53 92.5513 525.566 92.3755 525.638 92.2117C525.709 92.0527 525.797 91.9445 525.86 91.8818L528.688 94.7102ZM529.53 92.72V65.2H525.53V92.72H529.53ZM529.53 65.2C529.53 64.3571 529.148 63.5937 528.474 63.088L526.074 66.288C525.941 66.1879 525.789 66.0302 525.677 65.8064C525.565 65.5827 525.53 65.3668 525.53 65.2H529.53ZM528.688 63.2738C528.196 62.7817 527.513 62.432 526.698 62.432V66.432C526.529 66.432 526.353 66.3964 526.19 66.3236C526.031 66.2529 525.923 66.165 525.86 66.1022L528.688 63.2738ZM526.698 62.432H499.114V66.432H526.698V62.432ZM499.114 62.432C498.299 62.432 497.616 62.7817 497.124 63.2738L499.952 66.1022C499.889 66.165 499.781 66.2529 499.622 66.3236C499.459 66.3964 499.283 66.432 499.114 66.432V62.432ZM497.124 63.2738C496.554 63.8433 496.346 64.5582 496.346 65.2H500.346C500.346 65.2931 500.332 65.4403 500.267 65.6142C500.199 65.7943 500.092 65.9629 499.952 66.1022L497.124 63.2738ZM496.346 65.2V92.72H500.346V65.2H496.346ZM496.346 92.72C496.346 93.3661 496.55 93.9791 496.938 94.496L500.138 92.096C500.196 92.1733 500.252 92.2728 500.291 92.3915C500.331 92.5103 500.346 92.6234 500.346 92.72H496.346ZM497.338 94.896C497.855 95.2836 498.468 95.488 499.114 95.488V91.488C499.211 91.488 499.324 91.5031 499.442 91.5426C499.561 91.5822 499.661 91.638 499.738 91.696L497.338 94.896ZM542.313 102H540.313V104H542.313V102ZM542.313 55.92V53.92H540.313V55.92H542.313ZM550.697 55.92H552.697V53.92H550.697V55.92ZM550.697 102V104H552.697V102H550.697ZM544.313 102V55.92H540.313V102H544.313ZM542.313 57.92H550.697V53.92H542.313V57.92ZM548.697 55.92V102H552.697V55.92H548.697ZM550.697 100H542.313V104H550.697V100ZM557.025 102H555.025V104H557.025V102ZM558.241 60.4L559.946 61.4451L559.953 61.4331L559.96 61.4211L558.241 60.4ZM561.441 57.136L560.419 55.4163L560.407 55.4235L560.395 55.4308L561.441 57.136ZM598.625 57.136L597.603 58.8557L597.603 58.8557L598.625 57.136ZM601.889 60.4L600.169 61.4211L600.176 61.4332L600.183 61.4451L601.889 60.4ZM603.105 102V104H605.105V102H603.105ZM594.593 102H592.593V104H594.593V102ZM594.593 86.512H596.593V84.512H594.593V86.512ZM565.473 86.512V84.512H563.473V86.512H565.473ZM565.473 102V104H567.473V102H565.473ZM565.473 78.064H563.473V80.064H565.473V78.064ZM594.593 78.064V80.064H596.593V78.064H594.593ZM594.337 64.688L592.922 66.1022L593.023 66.2027L593.137 66.288L594.337 64.688ZM565.665 64.688L567.079 66.1022L567.079 66.1022L565.665 64.688ZM559.025 102V64.816H555.025V102H559.025ZM559.025 64.816C559.025 63.5461 559.337 62.4387 559.946 61.4451L556.535 59.3549C555.523 61.0066 555.025 62.8432 555.025 64.816H559.025ZM559.96 61.4211C560.609 60.3284 561.447 59.4779 562.486 58.8412L560.395 55.4308C558.789 56.4154 557.493 57.741 556.521 59.3789L559.96 61.4211ZM562.462 58.8557C563.511 58.2325 564.651 57.92 565.921 57.92V53.92C563.948 53.92 562.101 54.4181 560.419 55.4163L562.462 58.8557ZM565.921 57.92H594.145V53.92H565.921V57.92ZM594.145 57.92C595.414 57.92 596.554 58.2325 597.603 58.8557L599.646 55.4163C597.964 54.4181 596.117 53.92 594.145 53.92V57.92ZM597.603 58.8557C598.681 59.4956 599.529 60.3434 600.169 61.4211L603.608 59.3789C602.627 57.7259 601.299 56.3977 599.646 55.4163L597.603 58.8557ZM600.183 61.4451C600.792 62.4387 601.105 63.5461 601.105 64.816H605.105C605.105 62.8432 604.606 61.0066 603.594 59.3549L600.183 61.4451ZM601.105 64.816V102H605.105V64.816H601.105ZM603.105 100H594.593V104H603.105V100ZM596.593 102V86.512H592.593V102H596.593ZM594.593 84.512H565.473V88.512H594.593V84.512ZM563.473 86.512V102H567.473V86.512H563.473ZM565.473 100H557.025V104H565.473V100ZM565.473 80.064H594.593V76.064H565.473V80.064ZM596.593 78.064V65.2H592.593V78.064H596.593ZM596.593 65.2C596.593 64.3571 596.211 63.5937 595.536 63.088L593.137 66.288C593.003 66.1879 592.852 66.0302 592.74 65.8064C592.628 65.5827 592.593 65.3668 592.593 65.2H596.593ZM595.751 63.2738C595.259 62.7817 594.576 62.432 593.761 62.432V66.432C593.592 66.432 593.416 66.3964 593.252 66.3236C593.093 66.2529 592.985 66.165 592.922 66.1022L595.751 63.2738ZM593.761 62.432H566.241V66.432H593.761V62.432ZM566.241 62.432C565.425 62.432 564.742 62.7817 564.25 63.2738L567.079 66.1022C567.016 66.165 566.908 66.2529 566.749 66.3236C566.585 66.3964 566.409 66.432 566.241 66.432V62.432ZM564.25 63.2738C563.681 63.8433 563.473 64.5582 563.473 65.2H567.473C567.473 65.2931 567.458 65.4403 567.393 65.6142C567.326 65.7943 567.218 65.9629 567.079 66.1022L564.25 63.2738ZM563.473 65.2V78.064H567.473V65.2H563.473Z" fill="black" mask="url(#path-1-outside-1_68_64)"/>
<path d="M92.5285 7.00185C132.057 7.28308 163.93 39.4374 163.649 78.7788C163.368 118.401 130.932 149.931 90.7786 149.618C52.1871 149.306 20.7515 116.683 21.0015 77.2164C21.2202 38.5937 53.687 6.72061 92.5285 7.00185Z" fill="#030302"/>
<path d="M160.087 78.6226C159.993 115.933 129.026 146.431 91.4659 146.244C54.8119 146.056 24.095 114.714 24.3762 77.7789C24.6262 40.9061 55.3743 10.3142 92.1534 10.3767C129.807 10.4391 160.212 40.9686 160.118 78.6226H160.087Z" fill="#FCFCFC"/>
<path d="M155.587 78.4663C155.431 113.308 127.214 141.619 92.7785 141.431C56.3119 141.244 28.4699 113.37 28.6886 77.2476C28.8761 46.5307 56.1557 14.4389 92.2473 15.1263C127.62 15.7825 155.744 43.4684 155.619 78.4663H155.587Z" fill="#050406"/>
<path d="M39.7191 47.4994C49.8122 29.9067 65.1863 20.2511 85.0601 17.7512C92.2159 16.845 99.4655 16.845 106.496 19.0324C108.09 19.9698 109.902 20.3448 111.621 20.9698C117.746 23.2196 123.464 25.907 128.495 30.5005C130.995 32.7816 133.713 35.2189 136.557 37.2501C138.307 38.5 138.744 40.4999 140.244 41.8748C141.588 43.1247 139.057 43.9059 138.744 45.1558C141.838 43.2809 143.557 44.1871 143.682 47.8119C143.744 49.4681 142.869 51.4992 145.681 51.7804C146.056 51.8742 146.338 52.0929 146.588 52.4054C147.338 56.2177 149.994 59.3112 150.087 63.4985C150.275 72.5292 150.806 81.5912 150.337 90.6219C150.306 91.4031 150.119 92.1843 149.338 92.4655C147.838 92.9967 147.681 91.2781 146.744 90.8406C145.088 90.7156 144.744 92.1843 144.15 93.153C135.932 106.246 123.433 112.964 109.027 116.777C93.7783 120.808 78.873 119.276 64.2489 113.745C50.6559 108.59 42.2814 98.6526 38.1567 84.9035C37.7192 83.466 37.438 81.9974 36.813 80.6537C35.4381 81.2162 36.563 83.5598 34.6256 83.6848C33.6257 80.3412 34.4694 76.9352 34.1882 74.0604C34.9069 76.9039 32.782 80.4662 35.1881 83.6535C35.7193 83.1848 36.0943 82.2786 37.063 82.9661C38.0629 87.3096 38.5004 91.7156 38.8441 96.184C37.9379 97.6527 37.5317 99.6526 35.1568 99.4651C34.9381 98.1839 34.9069 96.8715 35.2506 95.6216C35.5318 95.3091 35.8443 94.9966 35.938 94.5591C35.8131 94.9029 35.6256 95.2153 35.3443 95.4341C35.1568 95.5903 34.9381 95.6841 34.6881 95.6841C32.5008 93.278 34.8131 90.6219 34.2506 88.5282C34.2506 87.6533 33.4382 88.372 33.8757 88.122C34.0007 88.0595 34.1257 88.1845 34.0632 88.4345C33.6569 89.5907 35.3131 91.4031 32.9382 91.903C32.1883 84.6222 30.8758 77.3414 32.282 70.0293C33.0632 65.9671 32.9695 61.6236 35.7506 58.1238C36.2193 57.5301 36.0005 56.6551 36.0943 55.9364C36.188 55.3115 36.2505 54.2178 36.4693 54.1865C40.8753 53.4991 38.5629 49.6556 39.6878 47.4369L39.7191 47.4994Z" fill="#5BC4FE"/>
<path d="M147.213 89.6532C147.838 90.4656 148.431 91.3093 149.056 92.1218C148.056 85.2472 150.931 78.4976 149.025 71.5605C148.213 68.6544 149.306 65.3109 148.681 62.0611C148.275 59.9675 148.963 57.9988 146.275 56.7802C144.525 55.9677 147.431 53.4679 145.338 52.0304C145.525 52.3429 145.869 51.8117 145.463 52.1242C145.463 52.1242 145.338 51.9679 145.338 52.0304C144.994 52.9054 144.525 53.8741 143.588 52.6867C142.9 51.8117 142.463 50.7493 142.494 49.5931C142.494 47.9682 143.932 45.9996 141.775 44.9059C139.151 43.5622 140.088 47.4995 137.838 47.562C138.432 46.0933 136.838 44.2184 139.338 43.406C139.807 43.2497 140.307 42.4998 139.869 42.2498C135.62 39.4999 134.463 33.1253 128.37 32.5316C127.933 32.5004 127.214 32.0316 127.214 31.7816C127.401 26.532 121.839 28.2194 119.839 25.6258C117.402 22.4697 113.683 22.126 110.215 21.626C108.309 21.3448 107.746 19.8761 106.496 19.0637C121.308 22.0322 132.776 30.2192 141.557 42.1873C167.18 77.0914 148.306 128.026 106.184 137.963C77.623 144.712 47.0623 129.088 35.8755 101.996C35.5318 101.215 35.3755 100.34 35.1255 99.5276C36.688 99.0276 36.7192 96.9965 38.2191 96.4028C39.6565 96.809 40.0003 98.0589 40.3752 99.2464C44.0313 111.214 52.2495 119.37 62.2802 126.276C90.7785 145.869 127.308 130.994 141.119 107.34C143.807 102.746 145.713 97.9339 145.994 92.5593C146.056 91.4968 145.931 90.2469 147.213 89.6532Z" fill="#5AC5FB"/>
<path d="M39.7192 47.4995C40.2191 49.4056 40.7503 51.2492 40.2191 53.3429C39.9691 54.374 39.5942 55.4677 38.8442 55.8115C37.7818 56.3427 38.5317 53.7491 36.7193 54.4365C37.7505 57.0301 35.6569 58.8113 35.0319 60.8737C33.657 65.4359 32.3133 70.2481 32.1884 75.2478C32.0321 80.8725 33.5633 86.3721 32.9383 91.9655C29.1573 76.2165 30.9697 61.3424 39.6879 47.4995H39.7192Z" fill="#5AC5FB"/>
<path d="M35.282 95.6528C36.3444 96.9652 35.407 98.2464 35.157 99.5276C33.8133 97.184 33.2196 94.6216 32.9384 91.9968C34.5008 90.8093 33.2821 88.9344 34.1258 87.4033C35.5007 90.1219 33.0009 93.2467 35.282 95.684V95.6528Z" fill="#5AC5FB"/>
<path d="M147.213 89.6532C146.432 107.121 136.401 118.62 122.402 127.213C106.653 136.9 89.7474 139.838 72.3422 132.619C55.7807 125.745 43.2502 114.433 38.188 96.3715C37.3756 91.903 36.5944 87.4658 36.6256 82.9036C36.0006 81.4349 35.0944 79.8725 37.5005 79.0913C40.0004 89.0282 43.6252 98.2776 51.7497 105.215C60.5617 112.714 71.1235 115.745 82.2166 117.308C95.4971 119.183 108.153 117.027 120.496 111.683C130.995 107.121 138.869 99.9338 144.775 90.3406C145.15 89.7156 145.463 86.4658 147.182 89.6532H147.213Z" fill="#1C6CCE"/>
<path d="M73.5297 59.7175C63.749 60.4987 57.1244 52.7491 57.1244 44.6871C57.1244 35.8126 63.374 27.8756 73.7796 27.9694C83.8728 28.0631 90.3099 34.9689 90.4974 43.5309C90.6849 53.3116 83.8103 60.1549 73.5609 59.7175H73.5297Z" fill="#A9F6FD"/>
<path d="M35.2818 83.6535C33.9381 84.6847 33.8131 83.6535 33.8131 82.7161C33.7819 79.2788 33.8131 75.8727 34.0319 72.4354C35.3443 76.0915 33.4381 80.06 35.2818 83.6223V83.6535Z" fill="#5AC5FB"/>
<path d="M37.5318 79.0913C36.2506 80.1537 37.0631 81.6536 36.6568 82.9035C36.1881 83.1535 35.7194 83.3723 35.2819 83.6222C35.2819 82.1536 35.0944 80.6537 35.3444 79.2475C35.7506 76.9976 36.6881 77.8413 37.5318 79.0913Z" fill="#5AC5FB"/>
<path d="M35.2818 95.6528C35.2505 94.5591 35.4068 93.5279 36.7504 92.0592C36.6567 93.9341 37.3754 95.2153 35.2818 95.6528Z" fill="#5AC5FB"/>
<path d="M150.181 88.9657C151.494 83.5285 150.025 77.9039 151.4 71.498C152.806 77.0602 152.181 85.6847 150.181 88.9657Z" fill="#5BC4FE"/>
<path d="M150.962 70.248C150.556 68.9356 149.556 67.6857 150.306 65.9983C152.087 67.342 151.15 68.8731 150.962 70.248Z" fill="#5BC4FE"/>
<path d="M144.494 50.6555C144.432 50.843 144.494 50.2806 144.619 50.2493C145.525 50.1556 145.4 50.9055 145.432 51.4367C145.432 51.6242 145.869 52.2179 145.119 52.1242C144.525 52.0617 144.338 51.718 144.494 50.6555Z" fill="#5BC4FE"/>
<path d="M281.557 7.00041C288.36 7.05618 294.179 13.135 294.086 20.0689C293.993 27.0028 287.914 32.97 280.98 32.8957C273.693 32.8213 268.377 26.9098 268.47 18.9721C268.544 12.5215 274.641 6.94465 281.557 7.00041Z" fill="#040503"/>
<path d="M274.195 11.592C277.56 7.46515 285.776 7.87412 289.346 12.2984C292.097 15.7189 293.175 19.5298 291.465 23.6753C289.717 27.9137 286.26 30.5348 281.798 30.9066C275.18 31.4457 268.841 25.5156 270.384 17.4477C270.812 15.217 271.593 13.0234 273.898 11.8895C274.493 12.5587 274.288 13.4138 274.437 14.1946C274.641 15.217 275.218 15.7561 276.277 15.6817C277.3 15.6074 277.894 15.0311 277.969 13.9901C278.043 12.9305 277.504 12.3542 276.482 12.1497C275.719 12.001 274.846 12.2055 274.195 11.5734V11.592Z" fill="#237E11"/>
<path d="M274.195 11.5921C277.69 11.0716 278.526 11.4619 278.657 13.6741C278.75 15.4215 277.95 16.258 276.221 16.3324C274.437 16.4253 273.6 15.6074 273.656 13.86C273.675 13.2094 273.823 12.5587 273.916 11.8895C274.009 11.778 274.121 11.685 274.214 11.5735L274.195 11.5921Z" fill="#F6F9F5"/>
<path d="M230.268 32.97C222.795 32.9328 217.571 27.1887 217.627 19.0278C217.664 12.6888 223.892 7.0004 230.733 7.07476C237.313 7.13053 243.243 13.1907 243.299 19.9201C243.374 26.9656 237.332 33.0072 230.268 32.97Z" fill="#060404"/>
<path d="M222.944 11.9824C226.68 8.0414 233.075 7.72537 237.239 11.2574C241.756 15.0868 242.686 21.5932 239.395 26.0919C235.436 31.4828 228.335 32.6354 223.52 28.6758C218.482 24.5489 217.887 17.0573 222.256 12.4285C222.442 12.224 222.739 12.1125 222.981 11.9638C223.594 12.6144 223.464 13.4695 223.613 14.2503C223.836 15.3843 224.561 15.8676 225.676 15.7189C226.736 15.5702 227.163 14.8452 227.163 13.8599C227.163 12.6702 226.42 12.2055 225.305 12.1497C224.524 12.1125 223.706 12.5401 222.962 11.9824H222.944Z" fill="#F2C63D"/>
<path d="M222.944 11.9824C223.724 11.8523 224.431 11.4805 225.286 11.4805C226.922 11.4805 227.814 12.094 227.814 13.7856C227.814 15.4215 227.238 16.4439 225.379 16.4811C223.557 16.5183 222.795 15.6817 222.832 13.9529C222.832 13.2837 222.907 12.6331 222.944 11.9638L222.925 11.9824H222.944Z" fill="#FBF9F4"/>
<path d="M190.505 19.9201C190.505 27.0957 184.835 32.9142 177.771 32.97C170.279 33.0258 165 27.3188 165 19.1394C165 12.7632 171.116 7.09334 178.013 7.07475C184.649 7.05616 190.486 13.0606 190.505 19.9201Z" fill="#040303"/>
<path d="M170.354 11.9824C175.038 6.74011 183.775 8.09715 187.4 14.6221C190.152 19.6041 188.702 25.4784 183.85 28.9546C179.128 32.3379 173.384 31.6873 169.424 27.3373C165.762 23.3034 165.706 16.7413 169.313 12.6888C169.592 12.3727 169.815 11.9452 170.354 11.9824C170.911 12.5958 170.726 13.3766 170.781 14.1016C170.893 15.4214 171.711 15.8676 172.919 15.7746C173.979 15.6817 174.518 15.0311 174.499 13.99C174.481 12.7074 173.718 12.1683 172.492 12.1683C171.785 12.1683 171.023 12.5586 170.354 12.001V11.9824Z" fill="#C30200"/>
<path d="M170.354 11.9824C173.57 10.867 175.038 11.4619 175.169 13.86C175.243 15.4773 174.611 16.351 172.901 16.4625C171.172 16.574 170.168 15.942 170.149 14.1388C170.149 13.4138 170.279 12.6888 170.372 11.9452L170.354 11.9824Z" fill="#F8F4F3"/>
</svg>
